<?xml version="1.0" encoding="UTF-8"?>
<svg id="_图层_2" data-name="图层 2" xmlns="http://www.w3.org/2000/svg" viewBox="0 0 31.98 31.98">
  <defs>
    <style>
      .cls-1 {
        fill: #6c6b6b;
      }
    </style>
  </defs>
  <g id="_图层_1-2" data-name="图层 1">
    <path id="account" class="cls-1" d="M15.99,0C7.16,0,0,7.16,0,15.99s7.16,15.99,15.99,15.99,15.99-7.16,15.99-15.99h0C31.97,7.16,24.82,0,15.99,0Zm0,4.8c2.65,0,4.8,2.15,4.8,4.8s-2.15,4.8-4.8,4.8-4.8-2.15-4.8-4.8c0-2.65,2.14-4.8,4.78-4.8,0,0,.01,0,.02,0Zm0,22.71c-3.86,0-7.46-1.94-9.59-5.15,.05-3.18,6.4-4.92,9.59-4.92s9.55,1.74,9.59,4.92c-2.13,3.22-5.74,5.15-9.6,5.15h0Z"/>
  </g>
</svg>