<?xml version="1.0" encoding="UTF-8"?>
<svg id="_图层_2" data-name="图层 2" xmlns="http://www.w3.org/2000/svg" viewBox="0 0 33.43 33.43">
  <defs>
    <style>
      .cls-1 {
        fill: #fff;
      }

      .cls-2 {
        fill: #585858;
      }

      .cls-3 {
        fill: #838383;
      }
    </style>
  </defs>
  <g id="ICON">
    <g id="in">
      <path id="_路径_7" data-name="路径 7" class="cls-2" d="M33.43,16.72c0,9.23-7.48,16.71-16.72,16.71S0,25.95,0,16.71,7.48,0,16.71,0s16.72,7.48,16.72,16.71h0Z"/>
      <g id="_组_4" data-name="组 4">
        <rect id="_矩形_1" data-name="矩形 1" class="cls-1" x="6.52" y="12.8" width="4.34" height="14.12"/>
        <path id="_路径_8" data-name="路径 8" class="cls-1" d="M8.71,11.14c1.35,0,2.44-1.09,2.44-2.44s-1.09-2.44-2.44-2.44-2.44,1.09-2.44,2.44h0c0,1.35,1.09,2.44,2.44,2.44Z"/>
        <path id="_路径_9" data-name="路径 9" class="cls-1" d="M27.16,19.51c0-3.76-.81-6.27-5.19-6.27-2.1,0-3.52,.78-4.1,1.88h-.06v-1.88h-3.88v13.93h4.06v-6.9c0-1.82,.34-3.58,2.6-3.58s2.4,2.08,2.4,3.7v6.79h4.18v-7.66Z"/>
      </g>
      <path id="_路径_10" data-name="路径 10" class="cls-2" d="M33.43,16.72c0,9.23-7.48,16.71-16.72,16.71S0,25.95,0,16.71,7.48,0,16.71,0s16.72,7.48,16.72,16.71h0Z"/>
      <g id="_组_5" data-name="组 5">
        <rect id="_矩形_2" data-name="矩形 2" class="cls-1" x="6.52" y="12.8" width="4.34" height="14.12"/>
        <path id="_路径_11" data-name="路径 11" class="cls-1" d="M8.71,11.14c1.35,0,2.44-1.09,2.44-2.44s-1.09-2.44-2.44-2.44-2.44,1.09-2.44,2.44h0c0,1.35,1.09,2.44,2.44,2.44Z"/>
        <path id="_路径_12" data-name="路径 12" class="cls-1" d="M27.16,19.51c0-3.76-.81-6.27-5.19-6.27-2.1,0-3.52,.78-4.1,1.88h-.06v-1.88h-3.88v13.93h4.06v-6.9c0-1.82,.34-3.58,2.6-3.58s2.4,2.08,2.4,3.7v6.79h4.18v-7.66Z"/>
      </g>
      <path id="_路径_13" data-name="路径 13" class="cls-3" d="M33.43,16.72c0,9.23-7.48,16.71-16.72,16.71S0,25.95,0,16.71,7.48,0,16.71,0s16.72,7.48,16.72,16.71h0Z"/>
      <g id="_组_6" data-name="组 6">
        <rect id="_矩形_3" data-name="矩形 3" class="cls-1" x="6.52" y="12.8" width="4.34" height="14.12"/>
        <path id="_路径_14" data-name="路径 14" class="cls-1" d="M8.71,11.14c1.35,0,2.44-1.09,2.44-2.44s-1.09-2.44-2.44-2.44-2.44,1.09-2.44,2.44h0c0,1.35,1.09,2.44,2.44,2.44Z"/>
        <path id="_路径_15" data-name="路径 15" class="cls-1" d="M27.16,19.51c0-3.76-.81-6.27-5.19-6.27-2.1,0-3.52,.78-4.1,1.88h-.06v-1.88h-3.88v13.93h4.06v-6.9c0-1.82,.34-3.58,2.6-3.58s2.4,2.08,2.4,3.7v6.79h4.18v-7.66Z"/>
      </g>
    </g>
  </g>
</svg>