<?xml version="1.0" encoding="UTF-8"?>
<svg id="_图层_2" data-name="图层 2" xmlns="http://www.w3.org/2000/svg" viewBox="0 0 33.43 33.43">
  <defs>
    <style>
      .cls-1 {
        fill: #fff;
      }

      .cls-2 {
        fill: #989898;
      }

      .cls-3 {
        fill: #757575;
      }
    </style>
  </defs>
  <g id="ICON">
    <g id="instagram">
      <path id="_路径_16" data-name="路径 16" class="cls-3" d="M33.43,16.72c0,9.23-7.48,16.71-16.72,16.71S0,25.95,0,16.71C0,7.48,7.48,0,16.72,0h0c9.23,0,16.71,7.48,16.71,16.72Z"/>
      <g id="_组_8" data-name="组 8">
        <path id="_路径_17" data-name="路径 17" class="cls-1" d="M23.12,6.27H10.31c-2.23,0-4.03,1.81-4.04,4.04v12.82c0,2.23,1.81,4.03,4.04,4.04h12.82c2.23,0,4.04-1.81,4.04-4.04V10.3c0-2.23-1.81-4.03-4.04-4.04Zm1.16,2.41h.46v3.54h-3.53s-.01-3.53-.01-3.53h3.08Zm-10.55,5.88c1.19-1.64,3.48-2,5.12-.81,1.64,1.19,2,3.48,.81,5.12-1.19,1.64-3.48,2-5.12,.81-.95-.69-1.52-1.8-1.51-2.98,0-.77,.25-1.52,.7-2.14h0Zm11.39,8.55c0,1.1-.9,2-2,2H10.31c-1.1,0-2-.9-2-2V14.57h3.12c-1.19,2.92,.21,6.26,3.14,7.45s6.26-.21,7.45-3.14c.56-1.38,.56-2.93,0-4.31h3.12v8.55Z"/>
      </g>
      <path id="_路径_18" data-name="路径 18" class="cls-3" d="M33.43,16.72c0,9.23-7.48,16.71-16.72,16.71S0,25.95,0,16.71C0,7.48,7.48,0,16.72,0h0c9.23,0,16.71,7.48,16.71,16.72Z"/>
      <g id="_组_9" data-name="组 9">
        <path id="_路径_19" data-name="路径 19" class="cls-1" d="M23.12,6.27H10.31c-2.23,0-4.03,1.81-4.04,4.04v12.82c0,2.23,1.81,4.03,4.04,4.04h12.82c2.23,0,4.04-1.81,4.04-4.04V10.3c0-2.23-1.81-4.03-4.04-4.04Zm1.16,2.41h.46v3.54h-3.53s-.01-3.53-.01-3.53h3.08Zm-10.55,5.88c1.19-1.64,3.48-2,5.12-.81,1.64,1.19,2,3.48,.81,5.12-1.19,1.64-3.48,2-5.12,.81-.95-.69-1.52-1.8-1.51-2.98,0-.77,.25-1.52,.7-2.14h0Zm11.39,8.55c0,1.1-.9,2-2,2H10.31c-1.1,0-2-.9-2-2V14.57h3.12c-1.19,2.92,.21,6.26,3.14,7.45s6.26-.21,7.45-3.14c.56-1.38,.56-2.93,0-4.31h3.12v8.55Z"/>
      </g>
      <path id="_路径_20" data-name="路径 20" class="cls-2" d="M33.43,16.72c0,9.23-7.48,16.71-16.72,16.71S0,25.95,0,16.71C0,7.48,7.48,0,16.72,0h0c9.23,0,16.71,7.48,16.71,16.72Z"/>
      <g id="_组_10" data-name="组 10">
        <path id="_路径_21" data-name="路径 21" class="cls-1" d="M23.12,6.27H10.31c-2.23,0-4.03,1.81-4.04,4.04v12.82c0,2.23,1.81,4.03,4.04,4.04h12.82c2.23,0,4.04-1.81,4.04-4.04V10.3c0-2.23-1.81-4.03-4.04-4.04Zm1.16,2.41h.46v3.54h-3.53s-.01-3.53-.01-3.53h3.08Zm-10.55,5.88c1.19-1.64,3.48-2,5.12-.81,1.64,1.19,2,3.48,.81,5.12-1.19,1.64-3.48,2-5.12,.81-.95-.69-1.52-1.8-1.51-2.98,0-.77,.25-1.52,.7-2.14h0Zm11.39,8.55c0,1.1-.9,2-2,2H10.31c-1.1,0-2-.9-2-2V14.57h3.12c-1.19,2.92,.21,6.26,3.14,7.45s6.26-.21,7.45-3.14c.56-1.38,.56-2.93,0-4.31h3.12v8.55Z"/>
      </g>
    </g>
  </g>
</svg>