<?xml version="1.0" encoding="UTF-8"?>
<svg id="_图层_2" data-name="图层 2" xmlns="http://www.w3.org/2000/svg" viewBox="0 0 33.98 33.98">
  <defs>
    <style>
      .cls-1 {
        fill: #fff;
      }

      .cls-2 {
        fill: #8b8b8b;
      }
    </style>
  </defs>
  <g id="ICON">
    <g id="twitter">
      <path id="_路径_22" data-name="路径 22" class="cls-2" d="M33.98,16.99c0,9.38-7.61,16.99-16.99,16.99S0,26.38,0,16.99,7.61,0,16.99,0h0c9.38,0,16.99,7.61,16.99,16.99Z"/>
      <g id="_组_11" data-name="组 11">
        <path id="_路径_23" data-name="路径 23" class="cls-1" d="M27.02,8.81c-.86,.5-1.79,.85-2.77,1.04-.83-.87-1.98-1.36-3.18-1.35-2.37-.03-4.32,1.86-4.36,4.23,0,.35,.03,.7,.11,1.04-3.49-.17-6.75-1.79-8.98-4.48-.39,.65-.59,1.4-.59,2.16,0,1.44,.73,2.78,1.94,3.57-.69-.02-1.37-.21-1.97-.54v.05c.01,2.06,1.48,3.82,3.5,4.21-.37,.1-.76,.15-1.15,.15-.28,0-.55-.03-.82-.08,.59,1.76,2.22,2.95,4.07,2.98-1.55,1.19-3.46,1.84-5.41,1.84-.35,0-.69-.02-1.04-.06,2,1.26,4.32,1.93,6.68,1.93,6.74,.1,12.29-5.28,12.4-12.02,0-.06,0-.12,0-.18,0-.19,0-.37-.01-.55,.85-.61,1.59-1.36,2.17-2.22-.8,.35-1.64,.57-2.5,.67,.9-.53,1.58-1.38,1.9-2.38Z"/>
      </g>
      <path id="_路径_24" data-name="路径 24" class="cls-2" d="M33.98,16.99c0,9.38-7.61,16.99-16.99,16.99S0,26.38,0,16.99,7.61,0,16.99,0h0c9.38,0,16.99,7.61,16.99,16.99Z"/>
      <g id="_组_12" data-name="组 12">
        <path id="_路径_25" data-name="路径 25" class="cls-1" d="M27.02,8.81c-.86,.5-1.79,.85-2.77,1.04-.83-.87-1.98-1.36-3.18-1.35-2.37-.03-4.32,1.86-4.36,4.23,0,.35,.03,.7,.11,1.04-3.49-.17-6.75-1.79-8.98-4.48-.39,.65-.59,1.4-.59,2.16,0,1.44,.73,2.78,1.94,3.57-.69-.02-1.37-.21-1.97-.54v.05c.01,2.06,1.48,3.82,3.5,4.21-.37,.1-.76,.15-1.15,.15-.28,0-.55-.03-.82-.08,.59,1.76,2.22,2.95,4.07,2.98-1.55,1.19-3.46,1.84-5.41,1.84-.35,0-.69-.02-1.04-.06,2,1.26,4.32,1.93,6.68,1.93,6.74,.1,12.29-5.28,12.4-12.02,0-.06,0-.12,0-.18,0-.19,0-.37-.01-.55,.85-.61,1.59-1.36,2.17-2.22-.8,.35-1.64,.57-2.5,.67,.9-.53,1.58-1.38,1.9-2.38Z"/>
      </g>
      <path id="_路径_26" data-name="路径 26" class="cls-2" d="M33.98,16.99c0,9.38-7.61,16.99-16.99,16.99S0,26.38,0,16.99,7.61,0,16.99,0h0c9.38,0,16.99,7.61,16.99,16.99Z"/>
      <g id="_组_13" data-name="组 13">
        <path id="_路径_27" data-name="路径 27" class="cls-1" d="M27.02,8.81c-.86,.5-1.79,.85-2.77,1.04-.83-.87-1.98-1.36-3.18-1.35-2.37-.03-4.32,1.86-4.36,4.23,0,.35,.03,.7,.11,1.04-3.49-.17-6.75-1.79-8.98-4.48-.39,.65-.59,1.4-.59,2.16,0,1.44,.73,2.78,1.94,3.57-.69-.02-1.37-.21-1.97-.54v.05c.01,2.06,1.48,3.82,3.5,4.21-.37,.1-.76,.15-1.15,.15-.28,0-.55-.03-.82-.08,.59,1.76,2.22,2.95,4.07,2.98-1.55,1.19-3.46,1.84-5.41,1.84-.35,0-.69-.02-1.04-.06,2,1.26,4.32,1.93,6.68,1.93,6.74,.1,12.29-5.28,12.4-12.02,0-.06,0-.12,0-.18,0-.19,0-.37-.01-.55,.85-.61,1.59-1.36,2.17-2.22-.8,.35-1.64,.57-2.5,.67,.9-.53,1.58-1.38,1.9-2.38Z"/>
      </g>
    </g>
  </g>
</svg>