<?xml version="1.0" encoding="UTF-8"?>
<svg id="Layer_1" data-name="Layer 1" xmlns="http://www.w3.org/2000/svg" viewBox="0 0 174.8 46.15">
  <defs>
    <style>
      .cls-1 {
        fill: #f2748f;
      }

      .cls-2 {
        fill: #fff;
      }
    </style>
  </defs>
  <g>
    <g>
      <path class="cls-2" d="m0,23.15c0-6.38,2.27-11.83,6.8-16.36C11.34,2.26,17.05,0,23.95,0s12.6,2.26,17.1,6.79c4.51,4.53,6.76,9.97,6.76,16.32s-2.24,11.79-6.72,16.29c-4.48,4.5-10.2,6.75-17.14,6.75s-12.68-2.24-17.18-6.72C2.25,34.96,0,29.53,0,23.15Zm8.51-.47c0,4.29,1.48,8.05,4.45,11.3,2.97,3.25,6.63,4.88,10.98,4.88,4.67,0,8.41-1.55,11.22-4.66,2.81-3.11,4.22-6.95,4.22-11.52,0-4.33-1.41-7.98-4.22-10.94-2.81-2.96-6.56-4.44-11.26-4.44s-8.43,1.49-11.22,4.48c-2.78,2.99-4.18,6.62-4.18,10.91Z"/>
      <path class="cls-2" d="m59.9,19.43c1.96-2.6,5.04-3.9,9.23-3.9,1.32,0,2.55.24,3.66.72l-.95,6.36c-1.17-.67-2.44-1.01-3.82-1.01-5.41,0-8.11,3.52-8.11,10.55v12.86h-7.72v-28.53h7.72v2.96Z"/>
      <path class="cls-2" d="m75.65.02h7.72v19.05c2.23-2.36,5.54-3.54,9.94-3.54,4.14,0,7.57,1.49,10.3,4.48,2.73,2.99,4.1,6.5,4.1,10.55,0,4.38-1.35,8.04-4.06,10.98-2.7,2.94-6.21,4.41-10.5,4.41-4.61,0-7.82-1.2-9.63-3.61l-.16,2.67h-7.72V.02Zm24.18,30.68c0-2.41-.82-4.53-2.47-6.36-1.64-1.83-3.74-2.74-6.28-2.74s-4.61.9-6.21,2.71c-1.59,1.81-2.39,3.95-2.39,6.43s.84,4.62,2.51,6.43c1.67,1.81,3.73,2.71,6.17,2.71,2.65,0,4.76-.88,6.32-2.64,1.56-1.76,2.35-3.94,2.35-6.54Z"/>
      <path class="cls-2" d="m121.31,10.57c0,1.11-.45,2.07-1.35,2.89-.9.82-1.96,1.23-3.18,1.23s-2.28-.41-3.18-1.23c-.9-.82-1.35-1.78-1.35-2.89s.45-2.07,1.35-2.89c.9-.82,1.96-1.23,3.18-1.23s2.28.41,3.18,1.23c.9.82,1.35,1.78,1.35,2.89Zm-.64,34.43h-7.72v-25.49h7.72v25.49Z"/>
      <path class="cls-2" d="m137.54,45h-7.72V6.79h7.72v38.21Z"/>
    </g>
    <circle class="cls-2" cx="34.65" cy="23.47" r="7.49"/>
    <g>
      <path class="cls-2" d="m35.52,30.76c-2.68,0-5.1-1.69-6.03-4.2-.59-1.61-.53-3.36.19-4.92.72-1.56,2-2.75,3.61-3.34.72-.26,1.47-.4,2.23-.4,2.68,0,5.1,1.69,6.03,4.2.59,1.61.53,3.36-.19,4.92-.72,1.56-2,2.75-3.61,3.34-.72.26-1.47.4-2.23.4Z"/>
      <path class="cls-1" d="m35.52,19.41c2,0,3.89,1.23,4.62,3.22.94,2.55-.36,5.39-2.91,6.33-.56.21-1.14.31-1.71.31-2,0-3.89-1.23-4.62-3.22-.94-2.55.36-5.39,2.91-6.33.56-.21,1.14-.31,1.71-.31m0-3h0c-.94,0-1.86.17-2.75.49-4.1,1.51-6.2,6.08-4.69,10.18,1.14,3.1,4.13,5.18,7.44,5.18.94,0,1.86-.17,2.75-.49,4.1-1.51,6.2-6.08,4.69-10.18-1.14-3.1-4.13-5.18-7.44-5.18h0Z"/>
    </g>
  </g>
  <g>
    <rect class="cls-2" x="124.06" y="16.47" width="19.05" height="5.71"/>
    <polygon class="cls-2" points="174.8 16.47 146.72 16.47 146.72 22.17 162.15 22.17 145.21 45 174.4 45 174.4 39.29 158.09 39.29 174.8 16.47"/>
  </g>
</svg>